


<svg xmlns="http://www.w3.org/2000/svg">

<!--icon-logo-chocolad-->
<symbol id="logo-chocolad" viewBox="0 0 32 32">
<g clip-path="url(#a)">
<path d="m3.236 15.348 8.5-14 3.5 2 3.5 2-.5 3.5 1.5 1.5-6.5 11.5-10-6.5Z" fill="#FCF1E0"/><path d="m15.277 17.036-10.176-6.36m2.95-4.838 10.176 6.36M7.239 18.694 16.09 4.18m3.367 6.002c-2.18-1.363-3.025-2.448-1.55-4.867L11 1 2.151 15.515l10.177 6.36 7.128-11.694Z" stroke="#FD9222" stroke-width="2" stroke-linecap="round" stroke-linejoin="round"/></g><defs><clipPath id="a"><path fill="#fff" d="M0 0h24v24H0z"/></clipPath></defs>
</symbol>

<!--icon-facebook-->
<symbol id="icon-facebook" viewBox="0 0 32 32">
<path d="M22.64 11.48h.72v2.7h-.9c-.36 0-.72 0-.9.18-.18.18-.18.36-.18.78v.96h1.98v2.28h-1.98v9.9h-3.06v-9.96H16.7v-2.28h1.62v-.78c0-1.32.18-2.28.54-2.7.54-.78 1.62-1.14 3.24-1.14.18.06.36.06.54.06Z" fill="#111"/>
</symbol>

<!--icon-instagram-->
<symbol id="icon-instagram" viewBox="0 0 32 32">
<path d="M29.538 16.067a6.94 6.94 0 0 0-.447-2.359 4.91 4.91 0 0 0-2.807-2.803 7.057 7.057 0 0 0-2.33-.447c-1.026-.045-1.351-.058-3.955-.058s-2.937 0-3.956.058a7.056 7.056 0 0 0-2.33.447 4.908 4.908 0 0 0-2.807 2.803 6.966 6.966 0 0 0-.446 2.326c-.046 1.025-.06 1.35-.06 3.949 0 2.6 0 2.931.06 3.949a7.01 7.01 0 0 0 .446 2.328 4.91 4.91 0 0 0 2.809 2.801 7.03 7.03 0 0 0 2.33.48c1.026.045 1.351.059 3.955.059s2.937 0 3.956-.06a7.039 7.039 0 0 0 2.33-.446 4.917 4.917 0 0 0 2.808-2.802 7 7 0 0 0 .446-2.328c.046-1.024.06-1.349.06-3.95-.002-2.598-.002-2.928-.062-3.947Zm-9.546 8.831a4.924 4.924 0 0 1-4.929-4.92 4.924 4.924 0 0 1 4.93-4.921 4.925 4.925 0 0 1 4.929 4.92 4.925 4.925 0 0 1-4.93 4.921Zm5.126-8.876a1.147 1.147 0 1 1 0-2.295 1.147 1.147 0 1 1 0 2.295Z" fill="#111"/><path d="M19.994 22.982a3.003 3.003 0 1 0 0-6.006 3.003 3.003 0 0 0 0 6.006Z" fill="#111"/>
</symbol>

<!--icon-twitter-->
<symbol id="icon-twitter" viewBox="0 0 32 32">
<path d="M30 13.924a8.55 8.55 0 0 1-2.363.647 4.076 4.076 0 0 0 1.804-2.266 8.191 8.191 0 0 1-2.6.992 4.099 4.099 0 0 0-7.093 2.804c0 .325.028.638.096.935-3.409-.166-6.425-1.8-8.452-4.289a4.128 4.128 0 0 0-.56 2.073c0 1.42.73 2.679 1.82 3.407a4.048 4.048 0 0 1-1.852-.505v.045a4.119 4.119 0 0 0 3.285 4.03 4.09 4.09 0 0 1-1.075.134 3.62 3.62 0 0 1-.776-.07c.531 1.624 2.039 2.818 3.831 2.857a8.238 8.238 0 0 1-5.084 1.748A7.67 7.67 0 0 1 10 26.41a11.543 11.543 0 0 0 6.29 1.84c7.545 0 11.67-6.25 11.67-11.668 0-.18-.006-.356-.015-.53A8.179 8.179 0 0 0 30 13.924Z" fill="#111"/>
</symbol>

<!--icon-arrowdown-->
<symbol id="arrowdown" viewBox="0 0 32 32">
<path d="M11.65 12.284a.918.918 0 0 1-1.3 0l-4.2-4.208a.917.917 0 1 0-1.3 1.292l4.207 4.208a2.75 2.75 0 0 0 3.886 0l4.208-4.208a.917.917 0 0 0-1.302-1.292l-4.198 4.207Z" fill="#FD9222"/>
</symbol>
</svg>


