


<svg version="1.1" xmlns="http://www.w3.org/2000/svg">

<!--icon-logo-chocolad-->
<symbol id="logo-chocolad" viewBox="0 0 21 24">
<path fill="none" stroke="#fd9222" stroke-linejoin="round" stroke-linecap="round" stroke-miterlimit="4" stroke-width="2.0870" d="M14.898 17.777l-10.618-6.637M7.358 6.092l10.618 6.637M6.51 19.507l9.236-15.145M19.259 10.625c-2.275-1.422-3.157-2.554-1.617-5.079l-7.207-4.503-9.234 15.146 10.619 6.637 7.438-12.202z"></path>
</symbol>

<!--icon-facebook-->
<symbol id="icon-facebook" viewBox="0 0 32 32">
<path d="M19.52 4.64h0.96v3.6h-1.2c-0.48 0-0.96 0-1.2 0.24s-0.24 0.48-0.24 1.040v1.28h2.64v3.040h-2.64v13.2h-4.080v-13.28h-2.16v-3.040h2.16v-1.040c0-1.76 0.24-3.040 0.72-3.6 0.72-1.040 2.16-1.52 4.32-1.52 0.24 0.080 0.48 0.080 0.72 0.080z"></path>
</symbol>

<!--icon-instagram-->
<symbol id="icon-instagram" viewBox="0 0 32 32">
<path d="M28.717 10.756c-0.016-1.134-0.233-2.213-0.617-3.209l0.021 0.063c-0.681-1.722-2.020-3.059-3.698-3.722l-0.044-0.015c-0.92-0.356-1.985-0.572-3.097-0.596l-0.010-0c-1.368-0.060-1.801-0.077-5.273-0.077s-3.916 0-5.275 0.077c-1.122 0.024-2.186 0.24-3.171 0.618l0.064-0.022c-1.723 0.678-3.062 2.015-3.727 3.693l-0.015 0.044c-0.357 0.919-0.573 1.982-0.595 3.092l-0 0.009c-0.061 1.367-0.080 1.8-0.080 5.265 0 3.467 0 3.908 0.080 5.265 0.022 1.121 0.239 2.184 0.616 3.168l-0.022-0.064c0.682 1.721 2.022 3.057 3.701 3.719l0.044 0.015c0.917 0.37 1.98 0.602 3.091 0.64l0.016 0c1.368 0.060 1.801 0.079 5.273 0.079s3.916 0 5.275-0.080c1.122-0.023 2.186-0.239 3.171-0.616l-0.064 0.022c1.723-0.679 3.061-2.015 3.728-3.692l0.016-0.044c0.356-0.92 0.573-1.983 0.595-3.095l0-0.009c0.061-1.365 0.080-1.799 0.080-5.267-0.003-3.465-0.003-3.904-0.083-5.263zM15.989 22.531c-0.002 0-0.003 0-0.005 0-3.624 0-6.562-2.936-6.565-6.56v-0c0.002-3.624 2.941-6.561 6.565-6.561 0.002 0 0.004 0 0.006 0h-0c0.002 0 0.004 0 0.007 0 3.624 0 6.563 2.936 6.567 6.56v0c-0.003 3.624-2.942 6.561-6.567 6.561-0.002 0-0.005 0-0.007 0h0zM22.824 10.696c-0.845 0-1.53-0.685-1.53-1.53s0.685-1.53 1.53-1.53v0c0.845 0 1.53 0.685 1.53 1.53s-0.685 1.53-1.53 1.53v0z"></path>
<path d="M15.992 19.976c2.211 0 4.004-1.793 4.004-4.004s-1.793-4.004-4.004-4.004v0c-2.211 0-4.004 1.793-4.004 4.004s1.793 4.004 4.004 4.004v0z"></path>
</symbol>

<!--icon-twitter-->
<symbol id="icon-twitter" viewBox="0 0 32 32">
<path d="M29.333 7.899c-0.917 0.411-1.98 0.714-3.094 0.857l-0.057 0.006c1.133-0.68 1.985-1.732 2.394-2.983l0.011-0.038c-0.998 0.603-2.159 1.062-3.397 1.312l-0.070 0.012c-1-1.067-2.418-1.733-3.992-1.733-3.018 0-5.465 2.447-5.465 5.465 0 0.002 0 0.004 0 0.006v-0c0 0.432 0.037 0.849 0.128 1.245-4.545-0.221-8.567-2.4-11.268-5.717-0.47 0.791-0.748 1.744-0.751 2.762v0.001c0 1.893 0.976 3.572 2.428 4.543-0.909-0.025-1.756-0.272-2.495-0.687l0.027 0.014v0.061c0.004 2.636 1.864 4.837 4.344 5.364l0.036 0.006c-0.417 0.114-0.896 0.18-1.39 0.18-0.015 0-0.030-0-0.045-0h0.002c-0.351 0-0.703-0.020-1.035-0.093 0.708 2.165 2.717 3.757 5.108 3.809-1.845 1.453-4.203 2.331-6.765 2.331-0.005 0-0.009 0-0.014 0h0.001c-0.022 0-0.047 0-0.072 0-0.435 0-0.865-0.027-1.286-0.080l0.050 0.005c2.355 1.538 5.239 2.453 8.337 2.453 0.018 0 0.035-0 0.053-0h-0.003c10.060 0 15.56-8.333 15.56-15.557 0-0.24-0.008-0.475-0.020-0.707 1.082-0.78 1.992-1.72 2.715-2.797l0.025-0.039z"></path>
</symbol>

<!--icon-arrowdown-->
<symbol id="arrowdown" viewBox="0 0 22 22">
<path fill="#fd9222" d="M11.65 12.284c-0.166 0.167-0.396 0.27-0.65 0.27s-0.484-0.103-0.65-0.27l-0-0-4.2-4.208c-0.168-0.181-0.407-0.294-0.673-0.294-0.506 0-0.917 0.411-0.917 0.917 0 0.264 0.111 0.501 0.29 0.669l0 0 4.207 4.208c0.497 0.497 1.184 0.804 1.943 0.804s1.446-0.307 1.943-0.804l4.208-4.208c0.164-0.166 0.266-0.394 0.266-0.646 0-0.507-0.411-0.917-0.917-0.917-0.255 0-0.485 0.104-0.651 0.271l-0 0-4.198 4.207z"></path>
</symbol>

<!--icon-elips-->

</svg>
